<svg width="262" height="245" viewBox="0 0 262 245" fill="none" xmlns="http://www.w3.org/2000/svg">
<mask id="mask0_0_1" style="mask-type:luminance" maskUnits="userSpaceOnUse" x="0" y="188" width="26" height="57">
<path d="M0.333252 188H25.6666V244.375H0.333252V188Z" fill="white"/>
</mask>
<g mask="url(#mask0_0_1)">
<path d="M18.3801 189.401C14.6353 189.401 10.9634 189.089 7.38006 188.5C5.99985 192.146 4.29673 197.01 2.20298 203.505C-6.52619 230.615 25.1821 244.401 25.1821 244.401V189.063C22.9426 189.286 20.6769 189.401 18.3801 189.401Z" fill="white"/>
</g>
<mask id="mask1_0_1" style="mask-type:luminance" maskUnits="userSpaceOnUse" x="76" y="0" width="186" height="106">
<path d="M76.3333 0.270752H261.667V105.333H76.3333V0.270752Z" fill="white"/>
</mask>
<g mask="url(#mask1_0_1)">
<path d="M83.0675 104.547C107.984 99.2395 150.687 89.8489 194.677 78.8489C263.151 61.7291 260.818 0.255127 260.818 0.255127L77.2915 90.2343C79.7394 94.7187 81.6873 99.5155 83.0675 104.547Z" fill="white"/>
</g>
<mask id="mask2_0_1" style="mask-type:luminance" maskUnits="userSpaceOnUse" x="29" y="182" width="42" height="63">
<path d="M29.6667 182.667H71.0001V244.375H29.6667V182.667Z" fill="white"/>
</mask>
<g mask="url(#mask2_0_1)">
<path d="M30.698 188.271C30.5678 195.594 31.1251 205.917 33.9064 217.75C39.422 241.182 70.2084 244.401 70.2084 244.401L47.6251 182.703C42.3334 185.276 36.6564 187.161 30.698 188.271Z" fill="white"/>
</g>
<path d="M69.3489 165.927C80.1249 176.87 97.8749 193.339 116.094 203.542C145.271 219.886 169.396 203.542 169.396 203.542L78.0989 152.896C75.6926 157.589 72.7499 161.958 69.3489 165.927Z" fill="white"/>
<path d="M53.1926 179.672C57.7239 192.823 65.9999 213.922 75.6666 225.099C90.3697 242.104 120.698 231.536 120.698 231.536L65.4478 170.109C61.7551 173.75 57.6458 176.964 53.1926 179.672Z" fill="white"/>
<path d="M85.4583 122.328C85.4583 123.74 85.4063 125.136 85.3229 126.521C109.495 129.281 150.51 132.735 183.781 132.735C234.365 132.735 249.146 88.3804 249.146 88.3804L84.5469 111.297C85.1406 114.886 85.4583 118.573 85.4583 122.328Z" fill="white"/>
<path d="M80.7656 147.016C98.4427 155.922 127.781 169.328 153.099 174.344C192.396 182.12 212.625 151 212.625 151L84.4219 134.125C83.6302 138.594 82.3958 142.906 80.7656 147.016Z" fill="white"/>
</svg>
